<svg xmlns="http://www.w3.org/2000/svg" width="373.873" height="295.916" viewBox="0 0 373.873 295.916">
  <g id="Grupo_15" data-name="Grupo 15" transform="translate(-1134 -297.042)">
    <g id="Trazado_2098" data-name="Trazado 2098" transform="translate(1134 297.042)" fill="#fff">
      <path d="M 358.7601013183594 295.4162292480469 C 353.3631286621094 295.4162292480469 346.4784851074219 293.5100708007812 338.2973937988281 289.7505798339844 C 331.7225341796875 286.7292785644531 324.3100280761719 282.5141296386719 316.2657775878906 277.2222290039062 C 302.5575866699219 268.2043151855469 291.6363525390625 259.0716857910156 291.5276489257812 258.98046875 L 291.3179931640625 258.8045654296875 L 291.0568542480469 258.8863830566406 C 290.8442993164062 258.9529724121094 269.5268859863281 265.61962890625 245.4102478027344 272.2001647949219 C 231.2498931884766 276.0640258789062 218.9102935791016 279.1423645019531 208.7341918945312 281.3497314453125 C 196.0382385253906 284.1036682128906 186.7071380615234 285.5000305175781 180.9999847412109 285.5000305175781 C 168.7460479736328 285.5000305175781 156.4999847412109 284.5247192382812 144.6019897460938 282.6011657714844 C 133.0073852539062 280.7266845703125 121.6028442382812 277.9297790527344 110.7050933837891 274.2881774902344 C 100.006591796875 270.7130737304688 89.68819427490234 266.288330078125 80.03664398193359 261.1367797851562 C 70.47853851318359 256.0351257324219 61.49099349975586 250.1766204833984 53.32364273071289 243.7239685058594 C 45.15844345092773 237.2729797363281 37.74589157104492 230.1752166748047 31.2919921875 222.6277160644531 C 24.77824211120605 215.0103302001953 19.18399238586426 206.8677215576172 14.66469192504883 198.4260711669922 C 10.06324195861816 189.8310699462891 6.529392242431641 180.8371276855469 4.16129207611084 171.6941223144531 C 1.731842041015625 162.3142242431641 0.4999920427799225 152.6601257324219 0.4999920427799225 143.0000152587891 C 0.4999920427799225 133.3399200439453 1.731842041015625 123.6858215332031 4.16129207611084 114.3058700561523 C 6.529392242431641 105.1628723144531 10.06324195861816 96.16897583007812 14.66469192504883 87.57392120361328 C 19.18399238586426 79.13232421875 24.77824211120605 70.98972320556641 31.2919921875 63.37232208251953 C 37.74589157104492 55.82482147216797 45.15844345092773 48.72702407836914 53.32364273071289 42.27607345581055 C 61.49099349975586 35.82342147827148 70.47853851318359 29.96492195129395 80.03664398193359 24.86327362060547 C 89.68819427490234 19.71172332763672 100.006591796875 15.28697299957275 110.7050933837891 11.71187305450439 C 121.6028442382812 8.070272445678711 133.0073852539062 5.273372650146484 144.6019897460938 3.39887261390686 C 156.4999847412109 1.475322723388672 168.7460479736328 0.5000227093696594 180.9999847412109 0.5000227093696594 C 193.2539367675781 0.5000227093696594 205.5000457763672 1.475322723388672 217.3979949951172 3.39887261390686 C 228.9926452636719 5.273372650146484 240.3971862792969 8.070272445678711 251.2948913574219 11.71187305450439 C 261.9934387207031 15.28697299957275 272.3117980957031 19.71172332763672 281.96337890625 24.86327362060547 C 291.521484375 29.96492195129395 300.509033203125 35.82342147827148 308.6763305664062 42.27607345581055 C 316.841552734375 48.72702407836914 324.2540893554688 55.82482147216797 330.7080383300781 63.37232208251953 C 337.2218017578125 70.98972320556641 342.8159790039062 79.13232421875 347.3352966308594 87.57392120361328 C 351.9367370605469 96.16897583007812 355.4705810546875 105.1628723144531 357.8386840820312 114.3058700561523 C 360.2681274414062 123.6858215332031 361.5 133.3399200439453 361.5 143.0000152587891 C 361.5 147.6051177978516 360.1699523925781 151.9782257080078 358.4859924316406 157.5147705078125 C 355.4830932617188 167.3880157470703 351.3704833984375 180.9099273681641 352.4982299804688 205.0531158447266 C 353.2533874511719 221.2197723388672 359.4214782714844 236.8118743896484 364.8634948730469 250.5685272216797 C 368.3848876953125 259.4701843261719 371.7110290527344 267.878173828125 372.8993530273438 274.9495239257812 C 374.1943054199219 282.6556091308594 372.839599609375 288.0815734863281 368.6360473632812 292.0252685546875 C 366.2377319335938 294.2753295898438 362.9149780273438 295.4161682128906 358.7601013183594 295.4162292480469 Z" stroke="none"/>
      <path d="M 180.9999847412109 0.999969482421875 C 168.7726440429688 0.999969482421875 156.5534362792969 1.973114013671875 144.6817932128906 3.892425537109375 C 133.1137847900391 5.7625732421875 121.7356872558594 8.552978515625 110.8635559082031 12.18606567382812 C 100.1914978027344 15.7523193359375 89.89898681640625 20.16592407226562 80.27203369140625 25.3043212890625 C 70.74014282226562 30.39202880859375 61.77764892578125 36.234130859375 53.63360595703125 42.66836547851562 C 45.49380493164062 49.09927368164062 38.10482788085938 56.17437744140625 31.67193603515625 63.69721984863281 C 25.18157958984375 71.28732299804688 19.60784912109375 79.39997863769531 15.10549926757812 87.80992126464844 C 10.52279663085938 96.36997985839844 7.00347900390625 105.3266754150391 4.645355224609375 114.4312744140625 C 2.2264404296875 123.7702789306641 1 133.3821716308594 1 143.0000152587891 C 1 152.6178741455078 2.2264404296875 162.2297668457031 4.645355224609375 171.5687713623047 C 7.00347900390625 180.6733703613281 10.52279663085938 189.6300659179688 15.10549926757812 198.1900634765625 C 19.60784912109375 206.6000213623047 25.18157958984375 214.7126770019531 31.67193603515625 222.3027648925781 C 38.10482788085938 229.8256225585938 45.49380493164062 236.9007263183594 53.63360595703125 243.3316192626953 C 61.77764892578125 249.765869140625 70.74014282226562 255.6079711914062 80.27203369140625 260.6956176757812 C 89.89898681640625 265.8340148925781 100.1914978027344 270.2476806640625 110.8635559082031 273.8138732910156 C 121.7356872558594 277.4469604492188 133.1137847900391 280.2373657226562 144.6817932128906 282.1075134277344 C 156.5534362792969 284.0268249511719 168.7726440429688 284.9999694824219 180.9999847412109 284.9999694824219 C 186.6713409423828 284.9999694824219 195.9663391113281 283.6075134277344 208.6267852783203 280.861328125 C 218.7939453125 278.6559753417969 231.1243896484375 275.5799255371094 245.2757415771484 271.7185668945312 C 269.3837890625 265.1404724121094 290.6948852539062 258.475830078125 290.9073486328125 258.4092712402344 L 291.4296264648438 258.2456359863281 L 291.8489990234375 258.5973815917969 C 291.9574584960938 258.6883850097656 302.8563842773438 267.8023071289062 316.5405883789062 276.8044128417969 C 324.5638427734375 282.0824584960938 331.9541320800781 286.2853088378906 338.5061340332031 289.2961730957031 C 346.6212768554688 293.0253295898438 353.4356994628906 294.9161682128906 358.7601013183594 294.9161682128906 C 360.7378540039062 294.9161682128906 362.5321960449219 294.6519775390625 364.0932312011719 294.130859375 C 365.7078857421875 293.5919189453125 367.1211853027344 292.7608337402344 368.2939453125 291.6605834960938 C 370.43115234375 289.655517578125 371.7846984863281 287.2857666015625 372.431884765625 284.4159240722656 C 373.030029296875 281.7638244628906 373.0216369628906 278.6944580078125 372.40625 275.0323791503906 C 371.2266845703125 268.0130615234375 367.9100036621094 259.62890625 364.3985290527344 250.7524719238281 C 358.9421997070312 236.9595642089844 352.7577819824219 221.3263244628906 351.998779296875 205.076416015625 C 350.8670043945312 180.8470153808594 354.994140625 167.2774200439453 358.0076293945312 157.3692779541016 C 359.6795043945312 151.8724670410156 361 147.5307159423828 361 143.0000152587891 C 361 133.3821716308594 359.7735290527344 123.7702789306641 357.3546447753906 114.4312744140625 C 354.9964904785156 105.3266754150391 351.4772033691406 96.36997985839844 346.8945007324219 87.80992126464844 C 342.3921508789062 79.39997863769531 336.8183898925781 71.28732299804688 330.3280334472656 63.69721984863281 C 323.8951416015625 56.17437744140625 316.5061950683594 49.09927368164062 308.3663940429688 42.66836547851562 C 300.2223510742188 36.234130859375 291.2598266601562 30.39202880859375 281.7279357910156 25.3043212890625 C 272.1009826660156 20.16592407226562 261.8085021972656 15.7523193359375 251.1364440917969 12.18606567382812 C 240.2642974853516 8.552978515625 228.8861846923828 5.7625732421875 217.3181915283203 3.892425537109375 C 205.4465484619141 1.973114013671875 193.2273406982422 0.999969482421875 180.9999847412109 0.999969482421875 M 180.9999847412109 -3.0517578125e-05 C 280.9635314941406 -3.0517578125e-05 362 64.02326965332031 362 143.0000152587891 C 362 156.1496276855469 351.2531433105469 167.6823272705078 352.9976806640625 205.0297698974609 C 354.7421875 242.3772735595703 385.5886840820312 276.8062133789062 368.9781494140625 292.3898620605469 C 350.850830078125 309.3965148925781 291.206298828125 259.363525390625 291.206298828125 259.363525390625 C 291.206298828125 259.363525390625 206.1775970458984 285.9999694824219 180.9999847412109 285.9999694824219 C 81.03643798828125 285.9999694824219 0 221.9767150878906 0 143.0000152587891 C 0 64.02326965332031 81.03643798828125 -3.0517578125e-05 180.9999847412109 -3.0517578125e-05 Z" stroke="none" fill="#707070"/>
    </g>
    <text id="Crearás_un_globo_que_irá_al_espacio" data-name="Crearás un globo 
que irá al 
espacio" transform="translate(1321 411)" font-size="40" font-family="SegoeUI, Segoe UI"><tspan x="-156.475" y="0">Crearás un globo </tspan><tspan x="-86.982" y="53">que irá al </tspan><tspan font-family="SegoeUI-Semibold, Segoe UI" font-weight="600"><tspan x="-68.076" y="106">espacio</tspan></tspan></text>
  </g>
</svg>
