<svg xmlns="http://www.w3.org/2000/svg" width="52.532" height="50.701" viewBox="0 0 52.532 50.701">
  <path id="Icon_awesome-link" data-name="Icon awesome-link" d="M33.511,18.358a14.676,14.676,0,0,1,.037,21.25l-.037.037L26.616,46.3a16.015,16.015,0,0,1-22.055,0,14.7,14.7,0,0,1,0-21.287l3.807-3.674a1.651,1.651,0,0,1,2.8,1.05,17.681,17.681,0,0,0,.994,5.221,1.554,1.554,0,0,1-.388,1.645l-1.343,1.3a7.012,7.012,0,0,0-.119,10.1,7.585,7.585,0,0,0,10.5.051l6.895-6.654a6.954,6.954,0,0,0,0-10.084,7.634,7.634,0,0,0-1.061-.849,1.575,1.575,0,0,1-.713-1.248,3.871,3.871,0,0,1,1.2-2.952l2.16-2.085a1.693,1.693,0,0,1,2.112-.171,15.527,15.527,0,0,1,2.106,1.7ZM47.971,4.4a16.015,16.015,0,0,0-22.055,0l-6.895,6.655-.037.037a14.676,14.676,0,0,0,.037,21.25,15.524,15.524,0,0,0,2.105,1.7,1.693,1.693,0,0,0,2.112-.171l2.16-2.085a3.871,3.871,0,0,0,1.2-2.952,1.575,1.575,0,0,0-.713-1.248,7.635,7.635,0,0,1-1.061-.849,6.954,6.954,0,0,1,0-10.084L31.72,10a7.585,7.585,0,0,1,10.5.051,7.012,7.012,0,0,1-.119,10.1l-1.343,1.3a1.554,1.554,0,0,0-.388,1.645,17.681,17.681,0,0,1,.994,5.221,1.651,1.651,0,0,0,2.8,1.05l3.807-3.674a14.7,14.7,0,0,0,0-21.286Z" transform="translate(0)" fill="#0470fa"/>
</svg>
