<svg xmlns="http://www.w3.org/2000/svg" width="121" height="121" viewBox="0 0 121 121">
  <g id="groups_black_48dp" transform="translate(0.052 0.052)">
    <rect id="Rectángulo_3" data-name="Rectángulo 3" width="121" height="121" transform="translate(-0.052 -0.052)" fill="rgba(0,0,0,0)"/>
    <g id="Grupo_4" data-name="Grupo 4" transform="translate(0.014 30.248)">
      <path id="Trazado_2104" data-name="Trazado 2104" d="M20.156,41.272A10.078,10.078,0,1,0,10.078,31.195,10.107,10.107,0,0,0,20.156,41.272Zm5.694,5.543a35.185,35.185,0,0,0-5.694-.5A35.023,35.023,0,0,0,6.147,49.234,10.132,10.132,0,0,0,0,58.556v7.911H22.675V58.354A22.668,22.668,0,0,1,25.85,46.815Zm74.929-5.543A10.078,10.078,0,1,0,90.7,31.195,10.107,10.107,0,0,0,100.778,41.272Zm20.156,17.283a10.132,10.132,0,0,0-6.147-9.322,34.256,34.256,0,0,0-19.7-2.419,22.669,22.669,0,0,1,3.175,11.539v8.113h22.675Zm-39.1-14.008a52.622,52.622,0,0,0-21.365-4.535A53.467,53.467,0,0,0,39.1,44.548a15.057,15.057,0,0,0-8.868,13.807v8.113H90.7V58.354A15.057,15.057,0,0,0,81.832,44.548ZM40.664,56.389c.454-1.159.655-1.965,4.585-3.477a42.444,42.444,0,0,1,30.435,0c3.88,1.512,4.082,2.318,4.585,3.477Zm19.8-40.311a5.039,5.039,0,1,1-5.039,5.039,5.054,5.054,0,0,1,5.039-5.039M60.467,6A15.117,15.117,0,1,0,75.584,21.117,15.1,15.1,0,0,0,60.467,6Z" transform="translate(0 -6)" fill="#1556eb"/>
    </g>
  </g>
</svg>
