<svg xmlns="http://www.w3.org/2000/svg" width="83" height="83" viewBox="0 0 83 83">
  <g id="psychology_black_24dp" transform="translate(-0.111 -0.111)">
    <g id="Grupo_9" data-name="Grupo 9">
      <rect id="Rectángulo_5" data-name="Rectángulo 5" width="83" height="83" transform="translate(0.111 0.111)" fill="none"/>
    </g>
    <g id="Grupo_11" data-name="Grupo 11" transform="translate(13.852 10.389)">
      <g id="Grupo_10" data-name="Grupo 10">
        <path id="Trazado_2109" data-name="Trazado 2109" d="M32.34,10.225,28.877,11.61a10.406,10.406,0,0,0-2.32-1.351l-.519-3.671A.7.7,0,0,0,25.345,6H19.8a.645.645,0,0,0-.658.589l-.519,3.671a9.685,9.685,0,0,0-2.32,1.351l-3.463-1.385a.668.668,0,0,0-.831.312l-2.77,4.779a.693.693,0,0,0,.173.9L12.358,18.5a5.771,5.771,0,0,0-.173,1.351,8.87,8.87,0,0,0,.1,1.351L9.38,23.488a.656.656,0,0,0-.173.866l2.77,4.814a.712.712,0,0,0,.866.312l3.428-1.385a9.9,9.9,0,0,0,2.355,1.351l.485,3.671a.7.7,0,0,0,.693.589h5.541a.7.7,0,0,0,.693-.589l.519-3.671a9.685,9.685,0,0,0,2.32-1.351l3.428,1.385a.635.635,0,0,0,.831-.312l2.77-4.814a.649.649,0,0,0-.173-.866L32.859,21.2a8.868,8.868,0,0,0,.1-1.351,8.228,8.228,0,0,0-.1-1.351L35.8,16.216a.693.693,0,0,0,.173-.9l-2.77-4.779A.727.727,0,0,0,32.34,10.225ZM22.574,24.8a4.952,4.952,0,1,1,4.952-4.952A4.951,4.951,0,0,1,22.574,24.8Z" transform="translate(8.592 4.389)" fill="red"/>
        <path id="Trazado_2110" data-name="Trazado 2110" d="M59.2,23.986A24.461,24.461,0,0,0,36.586,3.035C36.1,3,35.651,3,35.166,3A24.224,24.224,0,0,0,11.2,23.778L4.519,35.829a3.456,3.456,0,0,0,2.944,5.264h3.463v6.926a6.946,6.946,0,0,0,6.926,6.926h3.463V65.333H45.555V49.127A24.3,24.3,0,0,0,59.2,23.986ZM41.711,43.274l-3.082,1.454V58.407H28.24V48.019H17.851V34.167h-4.5L17.955,26.1A17.283,17.283,0,1,1,41.711,43.274Z" transform="translate(-4 -3)" fill="red"/>
      </g>
    </g>
  </g>
</svg>
