<svg id="Grupo_12" data-name="Grupo 12" xmlns="http://www.w3.org/2000/svg" width="570.941" height="414.386" viewBox="0 0 570.941 414.386">
  <path id="Trazado_2111" data-name="Trazado 2111" d="M611.528,227.147l-56.012-6.906,3.069-49.106h52.943Z" transform="translate(-129.275 -39.825)" fill="#ffb6b6"/>
  <g id="Group_234" data-name="Group 234" transform="translate(502.164 209.318)">
    <path id="Trazado_2112" data-name="Trazado 2112" d="M894.391,490.918a4.509,4.509,0,0,1-4.133-2.727l-7.777-18.146,23.053.08,15.84-16.751,7.6,17.737a4.514,4.514,0,0,1-2.306,5.878l-30.448,13.538a4.484,4.484,0,0,1-1.825.39Z" transform="translate(-882.43 -452.911)" fill="#e6e6e6"/>
    <path id="Trazado_2113" data-name="Trazado 2113" d="M902.016,472.272q-.288,0-.577-.017l-18.523-1.048-.5-1.125.35-.157,38.528-17.156.5,1.125L910.008,468.46A10.305,10.305,0,0,1,902.016,472.272Z" transform="translate(-882.415 -452.77)" fill="#ccc"/>
  </g>
  <g id="Group_231" data-name="Group 231" transform="translate(349.069 10.74)">
    <path id="Path_3126" data-name="Path 3126" d="M847.682,244.046l-54.688.684a3.876,3.876,0,0,1-3.872-3.872v-18.07a28.825,28.825,0,1,1,57.649,0l4.783,17.386a3.876,3.876,0,0,1-3.872,3.872Z" transform="translate(-707.61 -193.964)" fill="#2f2e41"/>
    <path id="Path_3127" data-name="Path 3127" d="M897.6,456.145a8.4,8.4,0,0,1,.5-12.865L888.583,415l14.99,3.961,6.739,26.247A8.44,8.44,0,0,1,897.6,456.145Z" transform="translate(-730.756 -245.402)" fill="#ffb6b6"/>
    <path id="Path_3128" data-name="Path 3128" d="M812.421,691.752,801.2,689.932l1.683-44.164,16.567,2.685Z" transform="translate(-710.42 -299.104)" fill="#ffb6b6"/>
    <path id="Path_3130" data-name="Path 3130" d="M877.5,662.61l-10.153,5.122L840.46,628.708l14.984-7.56Z" transform="translate(-719.557 -293.375)" fill="#ffb6b6"/>
    <circle id="Ellipse_597" data-name="Ellipse 597" cx="19.962" cy="19.962" r="19.962" transform="translate(90.136 10.655)" fill="#ffb8b8"/>
    <path id="Path_3132" data-name="Path 3132" d="M830.4,595.584l-46.75-119.209c-16.732-45.7-1.782-77.2-1.629-77.515l.077-.153.16-.058c1.92,7.472,45.448,6.963,55.423-4.546,5.822,4.891,13.571,16.406,15.231,30.167a108.55,108.55,0,0,1-3.866,43.957l-18.415,62.426,22.783,51.325Z" transform="translate(-704.492 -240.539)" fill="#2f2e41"/>
    <path id="Path_3133" data-name="Path 3133" d="M812.475,560.322l-16.88,85.6,22.482,4.239,14.145-74.091Z" transform="translate(-709.116 -279.22)" fill="#2f2e41"/>
    <path id="Trazado_2114" data-name="Trazado 2114" d="M784.89,346.262c3.6.961,39.146,15.61,56.012.767l13.235-65.345-15.856-5-5.533-6.729a6.284,6.284,0,0,0-4.947-2.3l-19.67.263a6.314,6.314,0,0,0-4.6,2.092l-6.3,7.027-14.232,3.312Z" transform="translate(-706.184 -211.113)" fill="#6c63ff"/>
    <path id="Path_3135" data-name="Path 3135" d="M866.33,290.841l4.309-5.738s7.9,2.075,11.907,13.388S902.993,400.2,902.993,400.2l-17.7,8.218-23.968-79.887Z" transform="translate(-724.413 -215.173)" fill="#6c63ff"/>
    <path id="Path_3136" data-name="Path 3136" d="M682.978,423.581a8.4,8.4,0,0,1,10.9-6.844l17.989-23.8,5.181,14.614L699.174,427.91a8.44,8.44,0,0,1-16.2-4.33Z" transform="translate(-682.888 -240.266)" fill="#ffb6b6"/>
    <path id="Path_3137" data-name="Path 3137" d="M769.569,289.341l-5.961-5.239s-6.244,1.575-10.255,12.889-55.213,87.164-55.213,87.164l17.7,8.218,58.734-65.348Z" transform="translate(-686.437 -214.94)" fill="#6c63ff"/>
    <path id="Path_3159" data-name="Path 3159" d="M840.441,224.256h-27.9a2.154,2.154,0,0,1-2.135-1.884l-.361-2.89a1.291,1.291,0,0,0-2.45-.384l-1.83,3.916a2.159,2.159,0,0,1-1.949,1.241h-4.238a2.148,2.148,0,0,1-2.152-2.145q0-.106.01-.211l1.671-17.455a2.167,2.167,0,0,1,1.228-1.752,43.631,43.631,0,0,1,38.513.023,2.155,2.155,0,0,1,1.217,1.651l2.5,17.432a2.148,2.148,0,0,1-2.129,2.455Z" transform="translate(-709.542 -194.955)" fill="#2f2e41"/>
  </g>
  <path id="Path_3114" data-name="Path 3114" d="M265.533,197.963a3.665,3.665,0,0,0-3.668,3.652l-.9,391.654a3.665,3.665,0,0,0,3.652,3.668l315.519.726a3.665,3.665,0,0,0,3.668-3.652l.9-391.654a3.665,3.665,0,0,0-3.652-3.668Z" transform="translate(-235.631 -184.155)" fill="#e6e6e6"/>
  <path id="Path_3115" data-name="Path 3115" d="M280.785,213.264a3.665,3.665,0,0,0-3.668,3.652l-.844,368.227a3.665,3.665,0,0,0,3.652,3.668l292.093.672a3.665,3.665,0,0,0,3.668-3.651l.844-368.228a3.665,3.665,0,0,0-3.652-3.668Z" transform="translate(-239.194 -187.716)" fill="#fff"/>
  <path id="Path_3116" data-name="Path 3116" d="M545.326,418.178,330.1,417.684a5.491,5.491,0,1,1,.025-10.981l215.224.5a5.491,5.491,0,1,1-.025,10.981Z" transform="translate(-250.446 -232.731)" fill="#e6e6e6"/>
  <path id="Path_3117" data-name="Path 3117" d="M570.572,284.9l-142.788-.328c-2.012,0-3.637-2.467-3.63-5.5s1.644-5.487,3.655-5.482l142.788.328c2.012,0,3.637,2.467,3.63,5.5S572.583,284.908,570.572,284.9Z" transform="translate(-273.608 -201.754)" fill="#e6e6e6"/>
  <path id="Path_3118" data-name="Path 3118" d="M570.477,325.926,427.689,325.6c-2.012,0-3.637-2.467-3.63-5.5s1.644-5.487,3.655-5.482l142.788.328c2.012,0,3.637,2.467,3.63,5.5S572.488,325.93,570.477,325.926Z" transform="translate(-273.586 -211.301)" fill="#e6e6e6"/>
  <path id="Path_3119" data-name="Path 3119" d="M545.216,464.451l-215.224-.495a5.491,5.491,0,1,1,.025-10.981l215.224.5a5.491,5.491,0,0,1,.1,10.981Z" transform="translate(-250.42 -243.499)" fill="#e6e6e6"/>
  <path id="Path_3120" data-name="Path 3120" d="M545.116,510.724l-215.224-.5a5.491,5.491,0,1,1,.025-10.981l215.224.5a5.491,5.491,0,1,1,.1,10.981h-.129Z" transform="translate(-250.397 -254.268)" fill="#e6e6e6"/>
  <path id="Path_3121" data-name="Path 3121" d="M545.007,557l-215.224-.5a5.491,5.491,0,1,1,.025-10.981l215.224.5a5.491,5.491,0,1,1,.1,10.981h-.129Z" transform="translate(-250.372 -265.036)" fill="#e6e6e6"/>
  <path id="Path_3122" data-name="Path 3122" d="M439.014,601.271l-109.339-.5a5.491,5.491,0,1,1,.025-10.981l109.339.5a5.491,5.491,0,0,1,.1,10.981Z" transform="translate(-250.347 -275.339)" fill="#e6e6e6"/>
  <path id="Path_3123" data-name="Path 3123" d="M438.908,647.545l-109.338-.5a5.491,5.491,0,1,1,.025-10.981l109.339.5a5.491,5.491,0,0,1,.1,10.981h-.129Z" transform="translate(-250.322 -286.107)" fill="#e6e6e6"/>
  <path id="Path_3124" data-name="Path 3124" d="M420.361,421.217" transform="translate(-272.725 -236.109)" fill="#e6e6e6"/>
  <path id="Path_3125" data-name="Path 3125" d="M544.5,221.2V195.073a14.78,14.78,0,0,0-29.554-.65H518.2a11.544,11.544,0,0,1,11.518-11.094h.169a11.549,11.549,0,0,1,11.363,11.719v26.357a7.742,7.742,0,0,1-7.731,7.639h-.1a7.746,7.746,0,0,1-7.638-7.847l.018-25.949a3.9,3.9,0,1,1,7.79-.026v7.539a1.626,1.626,0,0,0,3.252,0V195.2a7.146,7.146,0,0,0-14.293.025l-.017,25.955a11,11,0,0,0,10.85,11.117h.135A11,11,0,0,0,544.5,221.437C544.5,221.353,544.5,221.269,544.5,221.2Z" transform="translate(-294.736 -179.967)" fill="#6c63ff"/>
  <path id="Trazado_2115" data-name="Trazado 2115" d="M589.449,609.834a36.135,36.135,0,0,1-2.278,12.671,35.148,35.148,0,0,1-2.517,5.367,36.3,36.3,0,0,1-62.995,0q-.483-.837-.915-1.7a36.3,36.3,0,1,1,68.705-16.34Z" transform="translate(-295.181 -271.556)" fill="#e4e4e4"/>
  <circle id="Elipse_1" data-name="Elipse 1" cx="6.938" cy="6.938" r="6.938" transform="translate(252.924 330.529)" fill="#6c63ff"/>
  <path id="Trazado_2116" data-name="Trazado 2116" d="M521.922,634.486c3.057-3.3,7.144-8.549,10.977-4.759,1.924,1.788,4.934,6.218,7.816,3.322l22.5-22.5a4.468,4.468,0,0,1,6.389.114l18.742,20.158a35.154,35.154,0,0,1-2.517,5.367h-63Z" transform="translate(-296.36 -279.868)" fill="#3f3d56"/>
  <path id="Trazado_2117" data-name="Trazado 2117" d="M377.449,288.834a36.135,36.135,0,0,1-2.278,12.671,35.148,35.148,0,0,1-2.517,5.367,36.3,36.3,0,0,1-63,0q-.483-.837-.915-1.7a36.3,36.3,0,1,1,68.705-16.34Z" transform="translate(-245.846 -196.855)" fill="#e4e4e4"/>
  <circle id="Elipse_2" data-name="Elipse 2" cx="6.938" cy="6.938" r="6.938" transform="translate(90.259 84.229)" fill="#6c63ff"/>
  <path id="Trazado_2118" data-name="Trazado 2118" d="M309.922,313.486c3.057-3.3,7.144-8.549,10.977-4.759,1.924,1.788,4.934,6.218,7.816,3.322l22.5-22.5a4.468,4.468,0,0,1,6.389.114l18.742,20.158a35.157,35.157,0,0,1-2.517,5.367h-63Z" transform="translate(-247.025 -205.167)" fill="#3f3d56"/>
  <circle id="Elipse_3" data-name="Elipse 3" cx="3.836" cy="3.836" r="3.836" transform="translate(233.651 38.468)" fill="#6c63ff"/>
  <path id="Trazado_2119" data-name="Trazado 2119" d="M812.522,711.342h-7.3l-1.3-6.894-3.338,6.894H781.211a4.354,4.354,0,0,1-2.474-7.936L794.2,692.725v-6.97l16.267.971Z" transform="translate(-355.686 -297.67)" fill="#2f2e41"/>
  <path id="Trazado_2120" data-name="Trazado 2120" d="M897.653,690.895l-6.134,3.961-4.835-5.084.935,7.6-16.27,10.506a4.353,4.353,0,0,1-6.383-5.325l7.2-17.363-3.781-5.855,14.193-8.009Z" transform="translate(-376.113 -294.313)" fill="#2f2e41"/>
  <rect id="Rectangle_462" data-name="Rectangle 462" width="570.941" height="1.535" transform="translate(0 412.851)" fill="#ccc"/>
</svg>
