<svg xmlns="http://www.w3.org/2000/svg" width="87" height="87" viewBox="0 0 87 87">
  <g id="menu_book_black_24dp" transform="translate(0 0.195)">
    <g id="Grupo_5" data-name="Grupo 5">
      <rect id="Rectángulo_4" data-name="Rectángulo 4" width="87" height="87" transform="translate(0 -0.195)" fill="none"/>
    </g>
    <g id="Grupo_8" data-name="Grupo 8" transform="translate(3.6 16.202)">
      <g id="Grupo_7" data-name="Grupo 7">
        <path id="Trazado_2105" data-name="Trazado 2105" d="M73.01,6.3a42.5,42.5,0,0,0-12.6-1.8c-7.021,0-14.582,1.44-19.8,5.4C35.385,5.94,27.824,4.5,20.8,4.5S6.221,5.94,1,9.9V62.648a1.936,1.936,0,0,0,1.8,1.8c.36,0,.54-.18.9-.18a43.946,43.946,0,0,1,17.1-3.961c7.021,0,14.582,1.44,19.8,5.4,4.861-3.06,13.682-5.4,19.8-5.4,5.941,0,12.062,1.08,17.1,3.78a1.623,1.623,0,0,0,.9.18,1.936,1.936,0,0,0,1.8-1.8V9.9A24.557,24.557,0,0,0,73.01,6.3Zm0,48.607a41.839,41.839,0,0,0-12.6-1.8c-6.121,0-14.942,2.34-19.8,5.4V17.1c4.861-3.06,13.682-5.4,19.8-5.4a41.839,41.839,0,0,1,12.6,1.8Z" transform="translate(-1 -4.5)" fill="#f2843c"/>
        <g id="Grupo_6" data-name="Grupo 6" transform="translate(43.206 16.202)">
          <path id="Trazado_2106" data-name="Trazado 2106" d="M29.2,14.4a42.1,42.1,0,0,1,9,.936V9.864A48.618,48.618,0,0,0,29.2,9,41.43,41.43,0,0,0,13,11.988v5.977C17.069,15.661,22.721,14.4,29.2,14.4Z" transform="translate(-13 -9)" fill="#f2843c"/>
          <path id="Trazado_2107" data-name="Trazado 2107" d="M13,14.648v5.977c4.069-2.3,9.721-3.564,16.2-3.564a42.1,42.1,0,0,1,9,.936V12.524a48.618,48.618,0,0,0-9-.864A42.093,42.093,0,0,0,13,14.648Z" transform="translate(-13 -2.083)" fill="#f2843c"/>
          <path id="Trazado_2108" data-name="Trazado 2108" d="M29.2,14.33A41.43,41.43,0,0,0,13,17.318V23.3c4.069-2.3,9.721-3.564,16.2-3.564a42.1,42.1,0,0,1,9,.936V15.194A45.715,45.715,0,0,0,29.2,14.33Z" transform="translate(-13 4.861)" fill="#f2843c"/>
        </g>
      </g>
    </g>
  </g>
</svg>
